<svg width="21" height="22" viewBox="0 0 21 22" fill="none" xmlns="http://www.w3.org/2000/svg">
<g clip-path="url(#clip0_465_568)">
<g clip-path="url(#clip1_465_568)">
<path d="M11.0136 4.523C12.4966 4.523 13.8256 5.035 14.8736 6.035L17.7666 3.136C16.0176 1.502 13.7366 0.5 11.0136 0.5C7.07062 0.5 3.65662 2.769 1.99562 6.073L5.36262 8.692C6.15862 6.299 8.38662 4.523 11.0136 4.523Z" fill="#EB4335"/>
<path d="M20.7056 10.8447C20.7056 10.1207 20.6376 9.42774 20.5206 8.76074H11.0136V12.6347H16.4536C16.3468 13.2636 16.1124 13.8639 15.7648 14.3988C15.4172 14.9336 14.9639 15.3917 14.4326 15.7447L17.7026 18.2887C19.6086 16.5277 20.7056 13.9237 20.7056 10.8447Z" fill="#4285F4"/>
<path d="M11.0136 20.7301C13.7376 20.7301 16.0316 19.8341 17.7036 18.2891L14.4326 15.7451C13.5306 16.3531 12.3706 16.7071 11.0136 16.7071C8.38662 16.7071 6.15862 14.9321 5.36362 12.5391L1.99562 15.1571C3.65562 18.4621 7.06962 20.7311 11.0136 20.7311" fill="#34A853"/>
<path d="M1.99563 15.1572L5.36263 12.5392C5.15565 11.9189 5.04996 11.2692 5.04963 10.6152C5.04963 9.94724 5.16063 9.30024 5.36263 8.69224L1.99563 6.07324C1.28716 7.48239 0.918974 9.03802 0.920629 10.6152V10.6162C0.920629 12.2502 1.30963 13.7922 1.99563 15.1572Z" fill="#FBBC05"/>
</g>
</g>
<defs>
<clipPath id="clip0_465_568">
<rect width="20" height="21" fill="white" transform="translate(0.890625 0.5)"/>
</clipPath>
<clipPath id="clip1_465_568">
<rect width="20" height="21" fill="white" transform="translate(0.890625 0.5)"/>
</clipPath>
</defs>
</svg>
