<svg width="19" height="14" viewBox="0 0 19 14" fill="none" xmlns="http://www.w3.org/2000/svg">
<path fill-rule="evenodd" clip-rule="evenodd" d="M17.1659 7.229C16.0601 8.8909 13.3976 12.083 9.38203 12.083C5.39651 12.083 2.62831 8.9413 1.44211 7.26142C1.18611 6.89885 1.18611 6.43382 1.44211 6.07122C2.62831 4.39142 5.39651 1.24972 9.38203 1.24972C13.3976 1.24972 16.0601 4.44182 17.1659 6.10372C17.3965 6.45022 17.3965 6.88242 17.1659 7.229ZM9.38203 13.333C14.0783 13.333 17.0674 9.63355 18.2066 7.92143C18.7163 7.15541 18.7163 6.17722 18.2066 5.41122C17.0674 3.69912 14.0783 -0.000281334 9.38203 -0.000281334C4.73541 -0.000281334 1.63981 3.62412 0.421011 5.35022C-0.140188 6.14502 -0.140188 7.18762 0.421011 7.98241C1.63981 9.70858 4.73541 13.333 9.38203 13.333ZM11.985 6.66634C11.985 8.16211 10.7724 9.37467 9.27663 9.37467C7.78081 9.37467 6.56831 8.16211 6.56831 6.66634C6.56831 5.17052 7.78081 3.95802 9.27663 3.95802C10.7724 3.95802 11.985 5.17052 11.985 6.66634ZM9.27663 10.6247C11.4628 10.6247 13.235 8.85247 13.235 6.66634C13.235 4.48022 11.4628 2.70802 9.27663 2.70802C7.09051 2.70802 5.31831 4.48022 5.31831 6.66634C5.31831 8.85247 7.09051 10.6247 9.27663 10.6247Z" fill="#767676"/>
</svg>
