<svg width="18" height="7" viewBox="0 0 18 7" fill="none" xmlns="http://www.w3.org/2000/svg">
<path fill-rule="evenodd" clip-rule="evenodd" d="M16.7753 0.354195C16.9122 0.218595 17.0939 0.137695 17.2866 0.137695C17.9321 0.137695 18.2436 0.925895 17.7748 1.3697C17.3144 1.80518 16.657 2.19849 15.8478 2.53132L17.3457 4.02924C17.4101 4.09374 17.4613 4.17024 17.4962 4.25444C17.531 4.33863 17.549 4.42894 17.549 4.52004C17.549 4.61124 17.531 4.70154 17.4962 4.78574C17.4613 4.86994 17.4101 4.94644 17.3457 5.01094C17.2812 5.07534 17.2047 5.12654 17.1205 5.16144C17.0363 5.19634 16.946 5.21423 16.8548 5.21423C16.7637 5.21423 16.6734 5.19634 16.5892 5.16144C16.505 5.12654 16.4284 5.07534 16.364 5.01094L14.5409 3.18783C14.4898 3.13672 14.447 3.07802 14.4141 3.01392C13.6874 3.21257 12.8876 3.37085 12.0344 3.48082C12.0363 3.48974 12.0381 3.49871 12.0397 3.50773L12.4874 6.04684C12.515 6.22624 12.4713 6.40943 12.3656 6.55693C12.2598 6.70454 12.1005 6.80484 11.9217 6.83634C11.7429 6.86794 11.5589 6.82814 11.4091 6.72553C11.2592 6.62303 11.1555 6.46594 11.1202 6.28784L10.6725 3.74873C10.6645 3.70353 10.6611 3.65774 10.6621 3.61214C10.1858 3.64244 9.69755 3.65824 9.20015 3.65824C8.77054 3.65824 8.34773 3.64644 7.93357 3.62373C7.93472 3.66524 7.93215 3.70703 7.92573 3.74863L7.47803 6.28774C7.44607 6.46904 7.3434 6.63024 7.1926 6.73584C7.04181 6.84144 6.85523 6.88274 6.67393 6.85084C6.49263 6.81884 6.33145 6.71624 6.22585 6.56543C6.12025 6.41463 6.07887 6.22804 6.11083 6.04674L6.55853 3.50764L6.5591 3.50484C5.7008 3.40248 4.89405 3.25155 4.15833 3.05989C4.13007 3.10598 4.09629 3.14897 4.05743 3.18783L2.23433 5.01094C2.16987 5.07534 2.09335 5.12654 2.00913 5.16144C1.92491 5.19634 1.83464 5.21423 1.74348 5.21423C1.65232 5.21423 1.56206 5.19634 1.47784 5.16144C1.39362 5.12654 1.31709 5.07534 1.25263 5.01094C1.18817 4.94644 1.13704 4.86994 1.10216 4.78574C1.06727 4.70154 1.04932 4.61124 1.04932 4.52004C1.04932 4.42894 1.06727 4.33863 1.10216 4.25444C1.13704 4.17024 1.18817 4.09374 1.25263 4.02924L2.69368 2.58818C1.81965 2.24363 1.11242 1.83026 0.625542 1.3697C0.156543 0.925995 0.467942 0.137795 1.11354 0.137795C1.30624 0.137795 1.48784 0.218595 1.62484 0.354195C1.90004 0.626595 2.39524 0.958495 3.18454 1.2776C4.74424 1.9082 6.93694 2.26979 9.20005 2.26979C11.4632 2.26979 13.6558 1.9082 15.2156 1.2776C16.0049 0.958495 16.5001 0.626595 16.7753 0.354195Z" fill="#767676"/>
</svg>
