<svg width="390" height="525" viewBox="0 0 390 525" fill="none" xmlns="http://www.w3.org/2000/svg">
<path d="M243.497 392.994C117.729 325.971 13.542 462.711 -69.4582 435.712L-113.202 13.2643L450.007 -28.4241L430 410.5C392.5 429 369.265 460.017 243.497 392.994Z" fill="#90EE90"/>
<path d="M259.862 378.75C151.306 292.42 33.0416 425.21 -26.9584 413.21L-4.08371 -50.8611L561.25 2.69498L476.499 365.001C435.562 375.437 368.418 465.079 259.862 378.75Z" fill="#9D68FF"/>
<ellipse cx="301.502" cy="104.503" rx="11.203" ry="10.5028" fill="#6EF575"/>
<ellipse cx="81.2277" cy="125.542" rx="11.203" ry="10.5028" fill="#6EF575"/>
<path d="M48.2446 166.631C49.0465 164.855 51.5679 164.855 52.3698 166.631L58.4513 180.096C58.6781 180.598 59.0803 181 59.5824 181.227L73.0475 187.308C74.8231 188.11 74.8231 190.632 73.0475 191.434L59.5824 197.515C59.0803 197.742 58.6781 198.144 58.4513 198.646L52.3698 212.111C51.5679 213.887 49.0465 213.887 48.2446 212.111L42.1631 198.646C41.9363 198.144 41.5342 197.742 41.0321 197.515L27.5669 191.434C25.7914 190.632 25.7914 188.11 27.5669 187.308L41.0321 181.227C41.5342 181 41.9363 180.598 42.1631 180.096L48.2446 166.631Z" fill="#4E347F"/>
<path d="M331.649 168.828C332.468 167.108 334.917 167.108 335.736 168.828L341.822 181.611C342.058 182.108 342.468 182.502 342.974 182.719L356.145 188.362C357.974 189.146 357.974 191.739 356.145 192.523L342.974 198.167C342.468 198.383 342.058 198.777 341.822 199.274L335.736 212.057C334.917 213.777 332.468 213.777 331.649 212.057L325.564 199.274C325.327 198.777 324.918 198.383 324.412 198.167L311.241 192.523C309.412 191.739 309.412 189.146 311.241 188.362L324.412 182.719C324.918 182.502 325.327 182.108 325.564 181.611L331.649 168.828Z" fill="#6EF575"/>
<ellipse cx="117.115" cy="213.402" rx="11.203" ry="10.5028" fill="#4E347F"/>
<ellipse cx="270.564" cy="229.49" rx="11.203" ry="10.5028" fill="#4E347F"/>
<path d="M126.226 261.641C127.046 259.921 129.494 259.921 130.313 261.641L136.399 274.424C136.635 274.921 137.045 275.315 137.551 275.532L150.722 281.175C152.551 281.959 152.551 284.552 150.722 285.336L137.551 290.98C137.045 291.196 136.635 291.59 136.399 292.087L130.313 304.87C129.494 306.591 127.046 306.591 126.226 304.87L120.141 292.087C119.904 291.59 119.495 291.196 118.989 290.98L105.818 285.336C103.989 284.552 103.989 281.959 105.818 281.175L118.989 275.532C119.495 275.315 119.904 274.921 120.141 274.424L126.226 261.641Z" fill="#6EF575"/>
<path d="M304.406 270.58C305.208 268.805 307.729 268.805 308.531 270.58L314.613 284.045C314.839 284.547 315.242 284.95 315.744 285.176L329.209 291.258C330.984 292.06 330.984 294.581 329.209 295.383L315.744 301.465C315.242 301.691 314.839 302.093 314.613 302.596L308.531 316.061C307.729 317.836 305.208 317.836 304.406 316.061L298.324 302.596C298.098 302.093 297.696 301.691 297.193 301.465L283.728 295.383C281.953 294.581 281.953 292.06 283.728 291.258L297.193 285.176C297.696 284.95 298.098 284.547 298.324 284.045L304.406 270.58Z" fill="#4E347F"/>
</svg>
