<svg width="267" height="197" viewBox="0 0 267 197" fill="none" xmlns="http://www.w3.org/2000/svg">
<path d="M236.555 22.1687C82.8666 45.8806 134.953 168.351 183.569 196.056C22.2694 104.136 181.227 -15.5948 267 1.67688C247.387 90.6698 200.548 92.4263 188.546 99.7448C207.047 102.789 219.869 129.507 223.967 142.485C184.857 153.258 164.736 137.996 159.564 129.019C179.002 137.918 196.352 134.678 202.597 131.946C189.014 108.293 170.591 102.184 163.077 102.087C216.941 79.6042 234.506 39.4403 236.555 22.1687Z" fill="url(#paint0_linear_895_1902)"/>
<path d="M135.539 46.5762L129.098 52.431C93.4859 23.8241 70.4694 16.4214 23.7121 19.3513C36.0711 51.3799 56.1932 64.5384 108.607 81.9977C92.5897 86.687 86.716 93.9991 80.2109 113.028C89.8128 115.136 103.142 110.979 108.607 108.637V115.37C99.0048 125.909 75.3319 128.348 64.6957 128.251C60.9486 109.281 76.6004 90.4872 84.8947 83.4614C33.3725 79.4801 6.83072 34.1835 0.00012207 12.0328C101.581 -5.53156 117.389 27.2553 135.539 46.5762Z" fill="url(#paint1_linear_895_1902)"/>
<defs>
<linearGradient id="paint0_linear_895_1902" x1="266.963" y1="-4.85276e-06" x2="126.396" y2="216.876" gradientUnits="userSpaceOnUse">
<stop stop-color="#6BF875"/>
<stop offset="1" stop-color="#8ADB7F"/>
</linearGradient>
<linearGradient id="paint1_linear_895_1902" x1="0.000121531" y1="12.8802" x2="102.459" y2="64.9879" gradientUnits="userSpaceOnUse">
<stop stop-color="#AF8CF2"/>
<stop offset="1" stop-color="#D8C7FA"/>
</linearGradient>
</defs>
</svg>
