<svg width="192" height="252" viewBox="0 0 192 252" fill="none" xmlns="http://www.w3.org/2000/svg">
<ellipse cx="96.5888" cy="67.3063" rx="27.061" ry="3.46934" fill="#734E2E"/>
<rect x="91.7313" y="37.4336" width="10.0781" height="33.8336" fill="url(#paint0_linear_895_1953)"/>
<path d="M146.873 33.8335C136.435 47.8709 129.683 51.8301 117.358 51.8301C114.839 51.8301 93.9625 51.1103 95.4022 39.2325C95.4022 24.3237 110.879 0 146.873 0C159.197 0 155.169 22.6757 146.873 33.8335Z" fill="url(#paint1_linear_895_1953)"/>
<path d="M47.4596 34.5541C57.8977 48.5914 62.9367 51.8308 75.2614 51.8308C77.7809 51.8308 97.7372 51.111 96.2974 39.2332C95.3812 31.6747 88.132 1.44043 48.1795 1.44043C40.6209 1.44043 39.1627 23.3962 47.4596 34.5541Z" fill="url(#paint2_linear_895_1953)"/>
<path d="M85.6133 37.4333C80.2675 32.6815 67.8566 26.7554 61.8577 24.8357C60.7779 24.4758 57.1786 21.5964 64.3773 22.3162C71.5759 23.0361 83.8136 32.0344 85.9732 33.4741C88.1328 34.9138 88.8527 40.3128 85.6133 37.4333Z" fill="#13959A"/>
<path d="M106.896 37.5482C112.242 32.7964 130.604 18.7169 143.562 15.8374C146.632 15.1552 148.241 12.598 141.042 13.3179C126.645 14.7576 108.567 31.9719 106.537 33.5889C103.969 35.6336 103.969 39.5929 106.896 37.5482Z" fill="#1FA4AD"/>
<path d="M128.155 250.991H59.7678C-22.6564 241.965 -17.257 84.0009 60.1281 65.5376C72.5834 62.5659 84.2107 70.8132 94.474 70.7215C105.269 70.6251 114.702 62.317 128.155 64.3067C221.018 78.2567 205.181 255.504 128.155 250.991Z" fill="url(#paint3_linear_895_1953)"/>
<path d="M108.979 188.722H35.4805C-9.07533 188.722 0.0643764 100.179 42.7161 100.179H108.217C157.724 100.179 152.773 188.722 108.979 188.722Z" fill="url(#paint4_linear_895_1953)"/>
<path d="M110.878 185.004H41.4108C-0.701213 185.004 7.93719 102.939 48.2495 102.939H110.158C156.949 102.939 152.27 185.004 110.878 185.004Z" fill="#FFCBF6"/>
<path d="M83.1638 157.29C80.2843 157.29 83.1636 163.409 75.2452 163.409C67.3267 163.409 70.2061 157.29 66.9667 157.29C63.7273 157.29 64.0873 169.888 75.6051 169.888C87.1229 169.888 86.0432 157.29 83.1638 157.29Z" fill="#9464D2"/>
<path d="M36.8065 127.766C27.9826 127.766 20.7461 135.067 20.746 144.179C20.746 153.29 27.9825 160.593 36.8065 160.593C45.6304 160.593 52.8671 153.29 52.8671 144.179C52.8669 135.068 45.6303 127.766 36.8065 127.766Z" fill="black" stroke="white" stroke-width="5.26184"/>
<path d="M113.132 127.766C104.308 127.766 97.0716 135.067 97.0714 144.179C97.0714 153.29 104.308 160.593 113.132 160.593C121.956 160.593 129.193 153.29 129.193 144.179C129.192 135.068 121.956 127.766 113.132 127.766Z" fill="black" stroke="white" stroke-width="5.26184"/>
<defs>
<linearGradient id="paint0_linear_895_1953" x1="91.7313" y1="53.9904" x2="101.809" y2="53.9904" gradientUnits="userSpaceOnUse">
<stop stop-color="#59D59D"/>
<stop offset="1" stop-color="#0C90A0"/>
</linearGradient>
<linearGradient id="paint1_linear_895_1953" x1="125.005" y1="0" x2="125.005" y2="51.8301" gradientUnits="userSpaceOnUse">
<stop stop-color="#A7FBA3"/>
<stop offset="0.272187" stop-color="#AEFDA5"/>
<stop offset="1" stop-color="#1A8FA1"/>
</linearGradient>
<linearGradient id="paint2_linear_895_1953" x1="69.1087" y1="1.44043" x2="69.1087" y2="51.8308" gradientUnits="userSpaceOnUse">
<stop stop-color="#C0F8B3"/>
<stop offset="0.275017" stop-color="#B9FFAF"/>
<stop offset="1" stop-color="#1587A2"/>
</linearGradient>
<linearGradient id="paint3_linear_895_1953" x1="96.0005" y1="63.999" x2="96.0005" y2="251.076" gradientUnits="userSpaceOnUse">
<stop stop-color="#E1E3FB"/>
<stop offset="0.490385" stop-color="#CBBBE9"/>
<stop offset="1" stop-color="#A16AC6"/>
</linearGradient>
<linearGradient id="paint4_linear_895_1953" x1="74.8564" y1="100.179" x2="74.8564" y2="188.722" gradientUnits="userSpaceOnUse">
<stop stop-color="#9464D2"/>
<stop offset="0.510017" stop-color="#A288DE"/>
<stop offset="1" stop-color="#D7DCFB"/>
</linearGradient>
</defs>
</svg>
