<svg width="215" height="280" viewBox="0 0 215 280" fill="none" xmlns="http://www.w3.org/2000/svg">
<ellipse cx="107.714" cy="75.059" rx="30.1782" ry="3.869" fill="#734E2E"/>
<rect x="102.297" y="41.7455" width="11.239" height="37.7311" fill="url(#paint0_linear_1_121)"/>
<path d="M163.789 37.731C152.149 53.3854 144.619 57.8008 130.875 57.8008C128.065 57.8008 104.785 56.998 106.39 43.752C106.39 27.1257 123.65 0 163.789 0C177.534 0 173.042 25.2878 163.789 37.731Z" fill="url(#paint1_linear_1_121)"/>
<path d="M52.9254 38.5338C64.5659 54.1882 70.1854 57.8008 83.9297 57.8008C86.7395 57.8008 108.995 56.998 107.389 43.752C106.367 35.3227 98.2829 1.60558 53.7282 1.60558C45.299 1.60558 43.6728 26.0906 52.9254 38.5338Z" fill="url(#paint2_linear_1_121)"/>
<path d="M95.4738 41.745C89.5122 36.4458 75.6717 29.837 68.9818 27.6962C67.7777 27.2948 63.7637 24.0837 71.7916 24.8865C79.8195 25.6892 93.4668 35.7241 95.8752 37.3297C98.2835 38.9353 99.0863 44.9562 95.4738 41.745Z" fill="#13959A"/>
<path d="M119.209 41.8734C125.17 36.5742 145.648 20.8727 160.098 17.6616C163.521 16.9008 165.316 14.049 157.288 14.8518C141.232 16.4574 121.071 35.6547 118.807 37.458C115.944 39.7382 115.944 44.1536 119.209 41.8734Z" fill="#1FA4AD"/>
<path d="M142.917 279.906H66.6525C-25.2662 269.839 -19.2449 93.6787 67.0543 73.0885C80.9443 69.7744 93.911 78.9718 105.356 78.8695C117.395 78.762 127.915 69.4968 142.917 71.7158C246.477 87.2728 228.816 284.939 142.917 279.906Z" fill="#B993FF"/>
<path d="M121.532 210.462H39.5676C-10.1206 210.462 0.0718842 111.719 47.6366 111.719H120.683C175.892 111.719 170.371 210.462 121.532 210.462Z" fill="url(#paint3_linear_1_121)"/>
<path d="M123.65 206.317H46.1813C-0.781616 206.317 8.85185 114.799 53.8077 114.799H122.847C175.029 114.799 169.811 206.317 123.65 206.317Z" fill="#FFCBF6"/>
<path d="M92.7434 175.409C89.5323 175.409 92.7433 182.232 83.9127 182.232C75.0821 182.232 78.2932 175.409 74.6806 175.409C71.0681 175.409 71.4695 189.458 84.3141 189.458C97.1587 189.458 95.9546 175.409 92.7434 175.409Z" fill="#9464D2"/>
<path d="M41.0459 142.644C31.2973 142.644 23.2959 150.713 23.2959 160.788C23.296 170.863 31.2974 178.931 41.0459 178.931C50.7943 178.931 58.7958 170.863 58.7959 160.788C58.7959 150.713 50.7944 142.644 41.0459 142.644Z" fill="black" stroke="white" stroke-width="6.1904"/>
<path d="M126.164 142.644C116.415 142.644 108.414 150.713 108.414 160.788C108.414 170.863 116.415 178.93 126.164 178.93C135.912 178.93 143.913 170.863 143.914 160.788C143.914 150.713 135.912 142.644 126.164 142.644Z" fill="black" stroke="white" stroke-width="6.1904"/>
<defs>
<linearGradient id="paint0_linear_1_121" x1="102.297" y1="60.2096" x2="113.536" y2="60.2096" gradientUnits="userSpaceOnUse">
<stop stop-color="#59D59D"/>
<stop offset="1" stop-color="#0C90A0"/>
</linearGradient>
<linearGradient id="paint1_linear_1_121" x1="139.402" y1="0" x2="139.402" y2="57.8008" gradientUnits="userSpaceOnUse">
<stop stop-color="#A7FBA3"/>
<stop offset="0.272187" stop-color="#AEFDA5"/>
<stop offset="1" stop-color="#1A8FA1"/>
</linearGradient>
<linearGradient id="paint2_linear_1_121" x1="77.0683" y1="1.60558" x2="77.0683" y2="57.8008" gradientUnits="userSpaceOnUse">
<stop stop-color="#C0F8B3"/>
<stop offset="0.275017" stop-color="#B9FFAF"/>
<stop offset="1" stop-color="#1587A2"/>
</linearGradient>
<linearGradient id="paint3_linear_1_121" x1="83.4792" y1="111.719" x2="83.4792" y2="210.462" gradientUnits="userSpaceOnUse">
<stop stop-color="#9464D2"/>
<stop offset="0.510017" stop-color="#A288DE"/>
<stop offset="1" stop-color="#D7DCFB"/>
</linearGradient>
</defs>
</svg>
