<svg width="182" height="238" viewBox="0 0 182 238" fill="none" xmlns="http://www.w3.org/2000/svg">
<ellipse cx="91.5567" cy="63.8004" rx="25.6515" ry="3.28865" fill="#734E2E"/>
<rect x="86.9521" y="35.4834" width="9.55316" height="32.0714" fill="url(#paint0_linear_1665_1784)"/>
<path d="M139.221 32.0714C129.327 45.3776 122.927 49.1306 111.244 49.1306C108.856 49.1306 89.0669 48.4483 90.4316 37.1892C90.4316 23.0568 105.103 0 139.221 0C150.904 0 147.086 21.4947 139.221 32.0714Z" fill="url(#paint1_linear_1665_1784)"/>
<path d="M44.9863 32.7533C54.8806 46.0595 59.6572 49.1302 71.3399 49.1302C73.7282 49.1302 92.645 48.4478 91.2802 37.1887C90.4118 30.0238 83.5401 1.36426 45.6687 1.36426C38.5038 1.36426 37.1215 22.1765 44.9863 32.7533Z" fill="url(#paint2_linear_1665_1784)"/>
<path d="M81.1529 35.4837C76.0855 30.9794 64.3211 25.3619 58.6347 23.5423C57.6112 23.2011 54.1993 20.4716 61.023 21.154C67.8467 21.8363 79.4469 30.366 81.4941 31.7307C83.5412 33.0955 84.2235 38.2132 81.1529 35.4837Z" fill="#13959A"/>
<path d="M101.327 35.5921C106.394 31.0878 123.8 17.7416 136.083 15.0121C138.993 14.3654 140.518 11.9414 133.694 12.6238C120.047 13.9886 102.91 30.3063 100.986 31.8391C98.5524 33.7773 98.5524 37.5303 101.327 35.5921Z" fill="#1FA4AD"/>
<path d="M121.48 237.92H56.6546C-21.4763 229.364 -16.3582 79.6271 56.9962 62.1254C68.8026 59.3085 79.8243 67.1262 89.5531 67.0393C99.7856 66.9479 108.728 59.0726 121.48 60.9586C209.505 74.1821 194.493 242.198 121.48 237.92Z" fill="#00B23B"/>
<path d="M103.302 178.892H33.6324C-8.60263 178.892 0.0610056 94.9609 40.4911 94.9609H102.58C149.508 94.9609 144.815 178.892 103.302 178.892Z" fill="url(#paint3_linear_1665_1784)"/>
<path d="M105.102 175.369H39.2537C-0.664717 175.369 7.52373 97.5791 45.7362 97.5791H104.42C148.774 97.5791 144.339 175.369 105.102 175.369Z" fill="#FFCBF6"/>
<path d="M78.8319 149.098C76.1025 149.098 78.8318 154.898 71.3258 154.898C63.8198 154.898 66.5492 149.098 63.4786 149.098C60.4079 149.098 60.7491 161.039 71.667 161.039C82.5849 161.039 81.5614 149.098 78.8319 149.098Z" fill="#9464D2"/>
<path d="M34.8896 121.248C26.6034 121.248 19.8018 128.106 19.8018 136.67C19.802 145.233 26.6035 152.091 34.8896 152.091C43.1757 152.091 49.9764 145.233 49.9766 136.67C49.9766 128.106 43.1758 121.248 34.8896 121.248Z" fill="black" stroke="white" stroke-width="5.26184"/>
<path d="M107.239 121.248C98.953 121.248 92.1514 128.106 92.1514 136.67C92.1516 145.233 98.9531 152.091 107.239 152.091C115.525 152.091 122.326 145.233 122.326 136.67C122.326 128.106 115.525 121.248 107.239 121.248Z" fill="black" stroke="white" stroke-width="5.26184"/>
<defs>
<linearGradient id="paint0_linear_1665_1784" x1="86.9521" y1="51.1779" x2="96.5053" y2="51.1779" gradientUnits="userSpaceOnUse">
<stop stop-color="#59D59D"/>
<stop offset="1" stop-color="#0C90A0"/>
</linearGradient>
<linearGradient id="paint1_linear_1665_1784" x1="118.492" y1="0" x2="118.492" y2="49.1306" gradientUnits="userSpaceOnUse">
<stop stop-color="#A7FBA3"/>
<stop offset="0.272187" stop-color="#AEFDA5"/>
<stop offset="1" stop-color="#1A8FA1"/>
</linearGradient>
<linearGradient id="paint2_linear_1665_1784" x1="65.5077" y1="1.36426" x2="65.5077" y2="49.1302" gradientUnits="userSpaceOnUse">
<stop stop-color="#C0F8B3"/>
<stop offset="0.275017" stop-color="#B9FFAF"/>
<stop offset="1" stop-color="#1587A2"/>
</linearGradient>
<linearGradient id="paint3_linear_1665_1784" x1="70.9572" y1="94.9609" x2="70.9572" y2="178.892" gradientUnits="userSpaceOnUse">
<stop stop-color="#9464D2"/>
<stop offset="0.510017" stop-color="#A288DE"/>
<stop offset="1" stop-color="#D7DCFB"/>
</linearGradient>
</defs>
</svg>
