<svg width="278" height="278" viewBox="0 0 278 278" fill="none" xmlns="http://www.w3.org/2000/svg">
<rect width="277.965" height="277.965" rx="80.3918" fill="#B18EF2"/>
<path d="M79.1408 218.775H203.804C283.724 218.775 280.309 59.9531 203.804 59.9531H79.1408C-9.66006 59.9531 0.586182 218.775 79.1408 218.775Z" fill="url(#paint0_linear_465_663)"/>
<path d="M83.1643 212.133H200.989C276.526 212.133 273.298 64.9316 200.989 64.9316H83.1643C-0.765961 64.9316 8.91829 212.133 83.1643 212.133Z" fill="url(#paint1_linear_465_663)"/>
<path d="M126.814 162.011C131.979 162.011 126.815 172.986 141.018 172.986C155.221 172.986 150.057 162.011 155.867 162.011C161.678 162.011 161.032 184.607 140.372 184.607C119.713 184.607 121.649 162.011 126.814 162.011Z" fill="#3F0680"/>
<ellipse cx="210.186" cy="138.919" rx="33.5276" ry="34.1601" fill="url(#paint2_linear_465_663)"/>
<ellipse cx="209.555" cy="161.691" rx="6.32597" ry="6.32593" fill="white"/>
<ellipse cx="198.168" cy="127.532" rx="11.3867" ry="11.3867" fill="white"/>
<ellipse cx="72.2814" cy="138.919" rx="33.5276" ry="34.1601" fill="url(#paint3_linear_465_663)"/>
<ellipse cx="71.6491" cy="161.691" rx="6.32597" ry="6.32593" fill="white"/>
<path d="M88.5667 138.009C89.1513 136.828 90.8366 136.828 91.4212 138.009L94.2549 143.738C94.4263 144.084 94.7178 144.357 95.0751 144.504L100.974 146.936C102.288 147.478 102.288 149.339 100.974 149.881L95.0751 152.313C94.7178 152.46 94.4263 152.733 94.2549 153.079L91.4212 158.808C90.8366 159.989 89.1513 159.989 88.5667 158.808L85.733 153.079C85.5616 152.733 85.2701 152.46 84.9128 152.313L79.0139 149.881C77.7002 149.339 77.7002 147.478 79.0139 146.936L84.9128 144.504C85.2701 144.357 85.5616 144.084 85.733 143.738L88.5667 138.009Z" fill="#B088CE"/>
<path d="M226.472 138.009C227.057 136.828 228.742 136.828 229.327 138.009L232.161 143.738C232.332 144.084 232.623 144.357 232.981 144.504L238.88 146.936C240.193 147.478 240.193 149.339 238.88 149.881L232.981 152.313C232.623 152.46 232.332 152.733 232.161 153.079L229.327 158.808C228.742 159.989 227.057 159.989 226.472 158.808L223.639 153.079C223.467 152.733 223.176 152.46 222.818 152.313L216.92 149.881C215.606 149.339 215.606 147.478 216.92 146.936L222.818 144.504C223.176 144.357 223.467 144.084 223.639 143.738L226.472 138.009Z" fill="#B088CE"/>
<path d="M71.6491 127.532C71.6491 133.821 66.5511 138.919 60.2624 138.919C53.9736 138.919 48.8756 133.821 48.8756 127.532C48.8756 121.244 53.9736 116.146 60.2624 116.146C66.5511 116.146 71.6491 121.244 71.6491 127.532Z" fill="white"/>
<defs>
<linearGradient id="paint0_linear_465_663" x1="139.664" y1="59.9531" x2="139.664" y2="218.775" gradientUnits="userSpaceOnUse">
<stop stop-color="#9464D2"/>
<stop offset="0.510017" stop-color="#A288DE"/>
<stop offset="1" stop-color="#D7DCFB"/>
</linearGradient>
<linearGradient id="paint1_linear_465_663" x1="140.368" y1="64.9316" x2="140.368" y2="212.133" gradientUnits="userSpaceOnUse">
<stop stop-color="#FAEEF8"/>
<stop offset="1" stop-color="#F9CDF0"/>
</linearGradient>
<linearGradient id="paint2_linear_465_663" x1="210.186" y1="104.759" x2="210.186" y2="173.079" gradientUnits="userSpaceOnUse">
<stop stop-color="#27006B"/>
<stop offset="1" stop-color="#8F5FAB"/>
</linearGradient>
<linearGradient id="paint3_linear_465_663" x1="72.2814" y1="104.759" x2="72.2814" y2="173.079" gradientUnits="userSpaceOnUse">
<stop stop-color="#27006B"/>
<stop offset="1" stop-color="#8F5FAB"/>
</linearGradient>
</defs>
</svg>
