<svg width="176" height="129" viewBox="0 0 176 129" fill="none" xmlns="http://www.w3.org/2000/svg">
<path d="M155.081 14.5299C54.3494 30.0714 88.4882 110.342 120.353 128.5C14.6324 68.2534 118.818 -10.2212 175.035 1.09907C162.18 59.4274 131.481 60.5786 123.614 65.3754C135.74 67.3708 144.144 84.8821 146.831 93.3883C121.197 100.449 108.009 90.4463 104.619 84.5623C117.359 90.3952 128.731 88.2718 132.824 86.481C123.921 70.978 111.846 66.9743 106.922 66.9103C142.226 52.1747 153.738 25.8503 155.081 14.5299Z" fill="white"/>
<path d="M88.872 30.5269L84.6509 34.3642C61.3095 15.6146 46.2238 10.7626 15.5778 12.683C23.6783 33.6754 36.8668 42.2998 71.22 53.7431C60.7221 56.8166 56.8723 61.6091 52.6087 74.0813C58.902 75.4627 67.6384 72.7382 71.22 71.2032V75.6162C64.9267 82.5235 49.4108 84.1224 42.4396 84.0585C39.9836 71.6253 50.2423 59.3073 55.6786 54.7024C21.9095 52.093 4.51333 22.4044 0.036377 7.88624C66.6151 -3.62594 76.9761 17.8635 88.872 30.5269Z" fill="white"/>
</svg>