<svg width="25" height="25" viewBox="0 0 25 25" fill="none" xmlns="http://www.w3.org/2000/svg">
<path d="M4.95799 18.8094C6.00954 18.0053 7.18481 17.3713 8.48378 16.9074C9.78276 16.4434 11.1436 16.2115 12.5663 16.2115C13.989 16.2115 15.3498 16.4434 16.6488 16.9074C17.9478 17.3713 19.123 18.0053 20.1746 18.8094C20.8962 17.9641 21.4581 17.0053 21.8602 15.9331C22.2622 14.861 22.4633 13.7166 22.4633 12.5001C22.4633 9.75784 21.4993 7.42277 19.5715 5.49492C17.6436 3.56707 15.3086 2.60315 12.5663 2.60315C9.824 2.60315 7.48893 3.56707 5.56108 5.49492C3.63324 7.42277 2.66931 9.75784 2.66931 12.5001C2.66931 13.7166 2.87034 14.861 3.27241 15.9331C3.67447 17.0053 4.23633 17.9641 4.95799 18.8094ZM12.5663 13.7372C11.3498 13.7372 10.324 13.3197 9.48895 12.4847C8.65389 11.6496 8.23636 10.6238 8.23636 9.40732C8.23636 8.19082 8.65389 7.16504 9.48895 6.32998C10.324 5.49492 11.3498 5.07739 12.5663 5.07739C13.7828 5.07739 14.8086 5.49492 15.6436 6.32998C16.4787 7.16504 16.8962 8.19082 16.8962 9.40732C16.8962 10.6238 16.4787 11.6496 15.6436 12.4847C14.8086 13.3197 13.7828 13.7372 12.5663 13.7372ZM12.5663 24.8713C10.8549 24.8713 9.24668 24.5466 7.74151 23.8971C6.23635 23.2476 4.92706 22.3662 3.81365 21.2528C2.70024 20.1394 1.81879 18.8301 1.1693 17.3249C0.519813 15.8197 0.195068 14.2115 0.195068 12.5001C0.195068 10.7888 0.519813 9.18051 1.1693 7.67535C1.81879 6.17018 2.70024 4.8609 3.81365 3.74749C4.92706 2.63408 6.23635 1.75263 7.74151 1.10314C9.24668 0.453651 10.8549 0.128906 12.5663 0.128906C14.2776 0.128906 15.8859 0.453651 17.3911 1.10314C18.8962 1.75263 20.2055 2.63408 21.3189 3.74749C22.4323 4.8609 23.3138 6.17018 23.9633 7.67535C24.6128 9.18051 24.9375 10.7888 24.9375 12.5001C24.9375 14.2115 24.6128 15.8197 23.9633 17.3249C23.3138 18.8301 22.4323 20.1394 21.3189 21.2528C20.2055 22.3662 18.8962 23.2476 17.3911 23.8971C15.8859 24.5466 14.2776 24.8713 12.5663 24.8713ZM12.5663 22.3971C13.6591 22.3971 14.69 22.2373 15.6591 21.9177C16.6282 21.5981 17.5148 21.1394 18.3189 20.5414C17.5148 19.9435 16.6282 19.4847 15.6591 19.1651C14.69 18.8455 13.6591 18.6857 12.5663 18.6857C11.4735 18.6857 10.4426 18.8455 9.47348 19.1651C8.5044 19.4847 7.6178 19.9435 6.81367 20.5414C7.6178 21.1394 8.5044 21.5981 9.47348 21.9177C10.4426 22.2373 11.4735 22.3971 12.5663 22.3971ZM12.5663 11.263C13.1024 11.263 13.5457 11.0877 13.8962 10.7372C14.2467 10.3867 14.422 9.94341 14.422 9.40732C14.422 8.87123 14.2467 8.42793 13.8962 8.07741C13.5457 7.7269 13.1024 7.55164 12.5663 7.55164C12.0302 7.55164 11.5869 7.7269 11.2364 8.07741C10.8859 8.42793 10.7106 8.87123 10.7106 9.40732C10.7106 9.94341 10.8859 10.3867 11.2364 10.7372C11.5869 11.0877 12.0302 11.263 12.5663 11.263Z" fill="#B18EF2"/>
</svg>
