<svg width="372" height="376" viewBox="0 0 372 376" fill="none" xmlns="http://www.w3.org/2000/svg">
<ellipse cx="298.053" cy="67.4872" rx="9.05297" ry="8.48716" fill="#9D68FF"/>
<path d="M146.241 333.136C113.785 324.634 85.1489 305.426 64.968 278.624C44.7872 251.821 34.2429 218.991 35.0423 185.45C35.8417 151.909 47.9379 119.619 69.3727 93.8077C90.8074 67.9967 120.326 50.1753 153.15 43.2287C185.974 36.2821 220.181 40.6168 250.235 55.5312C280.289 70.4456 304.429 95.0666 318.748 125.408C333.067 155.75 336.727 190.037 329.135 222.717C321.543 255.398 303.143 284.559 276.915 305.481" stroke="#B18EF2" stroke-width="2"/>
<path d="M350 187.5C350 223.491 338.338 258.512 316.761 287.318C295.185 316.124 264.855 337.163 230.317 347.283C195.778 357.402 158.89 356.058 125.18 343.452C91.4693 330.845 62.7511 307.655 43.3279 277.356C23.9048 247.056 14.8224 211.279 17.4415 175.383C20.0606 139.488 34.2402 105.408 57.8558 78.2489C81.4715 51.0897 113.252 32.3138 148.435 24.7342C183.619 17.1546 220.311 21.1794 253.015 36.2056" stroke="#6EF575" stroke-width="2"/>
<path d="M43.3369 65.7912C67.9988 37.1513 100.745 16.6869 137.251 7.10086C173.756 -2.48521 212.302 -0.742048 247.799 12.1001C283.295 24.9423 314.071 48.2794 336.062 79.0292C358.053 109.779 370.223 146.495 370.964 184.326C371.705 222.157 360.983 259.324 340.215 290.916C319.446 322.509 289.608 347.04 254.642 361.271C219.676 375.501 181.227 378.761 144.375 370.621C107.522 362.48 73.9993 343.321 48.2342 315.675" stroke="#B18EF2" stroke-width="2"/>
<path d="M324.332 264.587C324.786 263.581 326.214 263.581 326.668 264.587L329.19 270.17C329.318 270.454 329.546 270.682 329.83 270.81L335.413 273.332C336.419 273.786 336.419 275.214 335.413 275.668L329.83 278.19C329.546 278.318 329.318 278.546 329.19 278.83L326.668 284.413C326.214 285.419 324.786 285.419 324.332 284.413L321.81 278.83C321.682 278.546 321.454 278.318 321.17 278.19L315.587 275.668C314.581 275.214 314.581 273.786 315.587 273.332L321.17 270.81C321.454 270.682 321.682 270.454 321.81 270.17L324.332 264.587Z" fill="#9D68FF"/>
<path d="M64.5451 86.5722C65.009 85.5976 66.3962 85.5976 66.8602 86.5722L69.3838 91.8731C69.5178 92.1547 69.7498 92.3777 70.0364 92.5005L75.4524 94.8212C76.4886 95.2651 76.4886 96.7341 75.4524 97.178L70.0364 99.4987C69.7498 99.6215 69.5178 99.8445 69.3838 100.126L66.8602 105.427C66.3962 106.402 65.009 106.402 64.5451 105.427L62.0215 100.126C61.8875 99.8445 61.6555 99.6215 61.3689 99.4987L55.9529 97.178C54.9167 96.7341 54.9167 95.2651 55.9529 94.8212L61.3689 92.5005C61.6555 92.3777 61.8875 92.1547 62.0215 91.8731L64.5451 86.5722Z" fill="#6EF575"/>
<ellipse cx="52.053" cy="288.487" rx="9.05297" ry="8.48716" fill="#6EF575"/>
</svg>
