<svg width="26" height="25" viewBox="0 0 26 25" fill="none" xmlns="http://www.w3.org/2000/svg">
<mask id="mask0_465_259" style="mask-type:alpha" maskUnits="userSpaceOnUse" x="0" y="0" width="26" height="25">
<rect x="0.4375" width="25" height="25" fill="#D9D9D9"/>
</mask>
<g mask="url(#mask0_465_259)">
<path d="M12.9375 21.875C11.6354 21.875 10.4158 21.6276 9.27865 21.1328C8.14149 20.638 7.15191 19.9696 6.3099 19.1276C5.46788 18.2856 4.79948 17.296 4.30469 16.1589C3.8099 15.0217 3.5625 13.8021 3.5625 12.5C3.5625 11.1979 3.8099 9.9783 4.30469 8.84115C4.79948 7.70399 5.46788 6.71441 6.3099 5.8724C7.15191 5.03038 8.14149 4.36198 9.27865 3.86719C10.4158 3.3724 11.6354 3.125 12.9375 3.125V5.20833C10.9062 5.20833 9.18316 5.9158 7.76823 7.33073C6.3533 8.74566 5.64583 10.4687 5.64583 12.5C5.64583 14.5312 6.3533 16.2543 7.76823 17.6693C9.18316 19.0842 10.9062 19.7917 12.9375 19.7917V21.875ZM17.1042 17.7083L15.6458 16.224L18.3281 13.5417H9.8125V11.4583H18.3281L15.6458 8.75L17.1042 7.29167L22.3125 12.5L17.1042 17.7083Z" fill="#B18EF2"/>
</g>
</svg>
