<svg width="26" height="25" viewBox="0 0 26 25" fill="none" xmlns="http://www.w3.org/2000/svg">
<g clip-path="url(#clip0_465_254)">
<path d="M24.7131 9.44707L16.7904 1.54499C15.8098 0.569977 14.4817 0.0224609 13.097 0.0224609C11.7123 0.0224609 10.3841 0.569977 9.40356 1.54499L1.48089 9.44707C1.18887 9.73643 0.957344 10.0807 0.79974 10.46C0.642135 10.8392 0.561584 11.2459 0.562757 11.6564V21.8825C0.562757 22.7113 0.892898 23.5061 1.48055 24.0922C2.06821 24.6782 2.86524 25.0075 3.69631 25.0075H22.4976C23.3287 25.0075 24.1257 24.6782 24.7134 24.0922C25.301 23.5061 25.6312 22.7113 25.6312 21.8825V11.6564C25.6324 11.2459 25.5518 10.8392 25.3942 10.46C25.2366 10.0807 25.0051 9.73643 24.7131 9.44707ZM16.2305 22.9242H9.96342V18.8262C9.96342 17.9974 10.2936 17.2026 10.8812 16.6165C11.4689 16.0305 12.2659 15.7012 13.097 15.7012C13.928 15.7012 14.7251 16.0305 15.3127 16.6165C15.9004 17.2026 16.2305 17.9974 16.2305 18.8262V22.9242ZM23.5422 21.8825C23.5422 22.1588 23.4321 22.4237 23.2362 22.6191C23.0403 22.8144 22.7747 22.9242 22.4976 22.9242H18.3196V18.8262C18.3196 17.4449 17.7693 16.1201 16.7899 15.1434C15.8105 14.1666 14.4821 13.6179 13.097 13.6179C11.7119 13.6179 10.3835 14.1666 9.40404 15.1434C8.42462 16.1201 7.87438 17.4449 7.87438 18.8262V22.9242H3.69631C3.41929 22.9242 3.15361 22.8144 2.95773 22.6191C2.76184 22.4237 2.65179 22.1588 2.65179 21.8825V11.6564C2.65276 11.3804 2.76271 11.1158 2.95784 10.92L10.8805 3.02103C11.4693 2.43658 12.2662 2.10847 13.097 2.10847C13.9277 2.10847 14.7246 2.43658 15.3134 3.02103L23.2361 10.9231C23.4305 11.1182 23.5404 11.3815 23.5422 11.6564V21.8825Z" fill="#B18EF2"/>
</g>
<defs>
<clipPath id="clip0_465_254">
<rect width="25.0684" height="25" fill="white" transform="translate(0.5625)"/>
</clipPath>
</defs>
</svg>
