<svg width="20" height="26" viewBox="0 0 20 26" fill="none" xmlns="http://www.w3.org/2000/svg">
<path d="M6.61377 4.78948C6.61377 3.78445 7.00598 2.82058 7.70411 2.10991C8.40225 1.39925 9.34912 1 10.3364 1C11.3237 1 12.2706 1.39925 12.9688 2.10991C13.6669 2.82058 14.0591 3.78445 14.0591 4.78948V11.1053C14.0591 12.1103 13.6669 13.0742 12.9688 13.7848C12.2706 14.4955 11.3237 14.8948 10.3364 14.8948C9.34912 14.8948 8.40225 14.4955 7.70411 13.7848C7.00598 13.0742 6.61377 12.1103 6.61377 11.1053V4.78948Z" stroke="white" stroke-width="1.89474" stroke-linecap="round" stroke-linejoin="round"/>
<path d="M1.6499 11.1055C1.6499 13.4505 2.56505 15.6996 4.19404 17.3578C5.82302 19.016 8.03239 19.9476 10.3361 19.9476C12.6398 19.9476 14.8492 19.016 16.4782 17.3578C18.1072 15.6996 19.0223 13.4505 19.0223 11.1055" stroke="white" stroke-width="1.89474" stroke-linecap="round" stroke-linejoin="round"/>
<path d="M5.37256 25H15.2997" stroke="white" stroke-width="1.89474" stroke-linecap="round" stroke-linejoin="round"/>
<path d="M10.3364 19.9473V24.9999" stroke="white" stroke-width="1.89474" stroke-linecap="round" stroke-linejoin="round"/>
</svg>
